<svg id="visual" viewBox="0 0 900 300" width="900" height="300" xmlns="http://www.w3.org/2000/svg" xmlns:xlink="http://www.w3.org/1999/xlink" version="1.1"><rect x="0" y="0" width="900" height="300" fill="#001220"></rect><path d="M0 109L21.5 103.8C43 98.7 86 88.3 128.8 89.2C171.7 90 214.3 102 257.2 107.2C300 112.3 343 110.7 385.8 104.7C428.7 98.7 471.3 88.3 514.2 87.8C557 87.3 600 96.7 642.8 102.3C685.7 108 728.3 110 771.2 112.7C814 115.3 857 118.7 878.5 120.3L900 122L900 0L878.5 0C857 0 814 0 771.2 0C728.3 0 685.7 0 642.8 0C600 0 557 0 514.2 0C471.3 0 428.7 0 385.8 0C343 0 300 0 257.2 0C214.3 0 171.7 0 128.8 0C86 0 43 0 21.5 0L0 0Z" fill="#605475"></path><path d="M0 67L21.5 68.2C43 69.3 86 71.7 128.8 75.7C171.7 79.7 214.3 85.3 257.2 86.5C300 87.7 343 84.3 385.8 81.3C428.7 78.3 471.3 75.7 514.2 76.8C557 78 600 83 642.8 81.5C685.7 80 728.3 72 771.2 71.3C814 70.7 857 77.3 878.5 80.7L900 84L900 0L878.5 0C857 0 814 0 771.2 0C728.3 0 685.7 0 642.8 0C600 0 557 0 514.2 0C471.3 0 428.7 0 385.8 0C343 0 300 0 257.2 0C214.3 0 171.7 0 128.8 0C86 0 43 0 21.5 0L0 0Z" fill="#524865"></path><path d="M0 56L21.5 56.7C43 57.3 86 58.7 128.8 62.5C171.7 66.3 214.3 72.7 257.2 74.5C300 76.3 343 73.7 385.8 68.3C428.7 63 471.3 55 514.2 51.5C557 48 600 49 642.8 50.8C685.7 52.7 728.3 55.3 771.2 56.2C814 57 857 56 878.5 55.5L900 55L900 0L878.5 0C857 0 814 0 771.2 0C728.3 0 685.7 0 642.8 0C600 0 557 0 514.2 0C471.3 0 428.7 0 385.8 0C343 0 300 0 257.2 0C214.3 0 171.7 0 128.8 0C86 0 43 0 21.5 0L0 0Z" fill="#453c56"></path><path d="M0 30L21.5 34C43 38 86 46 128.8 48.2C171.7 50.3 214.3 46.7 257.2 46.7C300 46.7 343 50.3 385.8 50.5C428.7 50.7 471.3 47.3 514.2 47.8C557 48.3 600 52.7 642.8 52.3C685.7 52 728.3 47 771.2 44.7C814 42.3 857 42.7 878.5 42.8L900 43L900 0L878.5 0C857 0 814 0 771.2 0C728.3 0 685.7 0 642.8 0C600 0 557 0 514.2 0C471.3 0 428.7 0 385.8 0C343 0 300 0 257.2 0C214.3 0 171.7 0 128.8 0C86 0 43 0 21.5 0L0 0Z" fill="#383047"></path><path d="M0 24L21.5 24.8C43 25.7 86 27.3 128.8 29.2C171.7 31 214.3 33 257.2 32.8C300 32.7 343 30.3 385.8 27.5C428.7 24.7 471.3 21.3 514.2 21.3C557 21.3 600 24.7 642.8 26.8C685.7 29 728.3 30 771.2 30.2C814 30.3 857 29.7 878.5 29.3L900 29L900 0L878.5 0C857 0 814 0 771.2 0C728.3 0 685.7 0 642.8 0C600 0 557 0 514.2 0C471.3 0 428.7 0 385.8 0C343 0 300 0 257.2 0C214.3 0 171.7 0 128.8 0C86 0 43 0 21.5 0L0 0Z" fill="#2c2538"></path></svg>