<svg id="visual" viewBox="0 0 900 600" width="900" height="600" xmlns="http://www.w3.org/2000/svg" xmlns:xlink="http://www.w3.org/1999/xlink" version="1.1"><rect x="0" y="0" width="900" height="600" fill="#0c1e31"></rect><path d="M0 158L21.5 153.7C43 149.3 86 140.7 128.8 127.8C171.7 115 214.3 98 257.2 89C300 80 343 79 385.8 83.7C428.7 88.3 471.3 98.7 514.2 117.8C557 137 600 165 642.8 160.8C685.7 156.7 728.3 120.3 771.2 115.2C814 110 857 136 878.5 149L900 162L900 0L878.5 0C857 0 814 0 771.2 0C728.3 0 685.7 0 642.8 0C600 0 557 0 514.2 0C471.3 0 428.7 0 385.8 0C343 0 300 0 257.2 0C214.3 0 171.7 0 128.8 0C86 0 43 0 21.5 0L0 0Z" fill="#001220" stroke-linecap="round" stroke-linejoin="miter"></path></svg>