<svg id="visual" viewBox="0 0 900 600" width="900" height="600" xmlns="http://www.w3.org/2000/svg" xmlns:xlink="http://www.w3.org/1999/xlink" version="1.1"><rect x="0" y="0" width="900" height="600" fill="#0c1e31"></rect><path d="M0 158L21.5 168C43 178 86 198 128.8 206.5C171.7 215 214.3 212 257.2 190.5C300 169 343 129 385.8 110.7C428.7 92.3 471.3 95.7 514.2 96.8C557 98 600 97 642.8 100.7C685.7 104.3 728.3 112.7 771.2 116.5C814 120.3 857 119.7 878.5 119.3L900 119L900 0L878.5 0C857 0 814 0 771.2 0C728.3 0 685.7 0 642.8 0C600 0 557 0 514.2 0C471.3 0 428.7 0 385.8 0C343 0 300 0 257.2 0C214.3 0 171.7 0 128.8 0C86 0 43 0 21.5 0L0 0Z" fill="#001220" stroke-linecap="round" stroke-linejoin="miter"></path></svg>